<?xml version="1.0" encoding="UTF-8"?>
<svg version="1.1" viewBox="0 0 1600 1600" width="1280" height="1280" xmlns="http://www.w3.org/2000/svg">
<path transform="translate(779,215)" d="m0 0h44l64 3 42 4 57 9 38 8 51 13 40 12 32 11 28 11 30 13 17 9 16 8 23 12 18 11 42 28 17 12 18 14 10 8 10 9 11 9 8 8 8 7 19 19 7 8 9 9 7 8 13 16 15 20 11 17 10 17 8 16 11 23 10 28 7 22 8 41 4 29 2 35v39l-3 33-6 35-7 30-7 24-11 29-13 29-12 22-13 21-13 18-13 17-14 17-16 17-18 18-8 7-14 12-16 12-19 14-16 11-10 7-11 7-8 7-20 40-8 12-14 20-13 16-11 12h-2v2l-8 7-9 9-14 11-16 11-21 12-27 14-33 14-31 11-35 10-30 7-39 7-35 5-39 4-29 2-28 1h-43l-28-1-44-4-45-6-36-7-57-14-18-3h-11l-15 3-36 12-49 16-37 11-34 9-36 7-53 8-35 3-17-2-16-6-11-6-13-10-8-8-7-11-5-12-2-10v-21l3-12 8-16 11-13 31-31 11-14 11-18 11-23 10-27 4-14 1-9-4-8-10-9-12-9-10-9-8-7-33-33-7-8-16-16-9-11-10-12-13-17-12-17-11-18-10-18-8-15-8-19-9-26-7-23-6-24-6-36-3-33v-50l4-37 5-29 6-25 9-31 12-32 12-26 10-19 15-25 12-17 11-14 11-13 9-10 7-8 24-24 8-7 13-12 11-10 11-9 12-10 17-13 18-13 24-16 20-12 21-12 43-22 27-12 28-11 37-13 41-13 50-14 41-9 29-5 44-5 33-3z" fill="#0D4428"/>
<path transform="translate(834,480)" d="m0 0h25l23 1 39 4 34 7 32 8 25 7 27 10 20 9 18 8 23 13 19 11 20 14 14 11 13 11 8 7 10 9 7 7 7 8 11 13 11 15 11 17 13 25 10 27 4 15 4 22 1 9v36l-3 26-5 21-8 23-9 20-9 16-11 17-10 13-13 16-9 10-13 13-8 7-8 8-14 11-19 14-21 13-18 10-15 8-29 13-30 11-27 8-32 8-36 6-31 4-14 1h-49l-32-3-40-6-28-6-27-7-23-7-27-10-23-10-28-14-25-15-13-9-16-12-14-12-10-9-8-7-12-13-12-14-15-20-13-21-8-16-9-21-9-32-3-17-1-11v-42l3-19 5-19 7-20 9-20 8-16 8-13 14-20 11-13 9-11 14-14 10-8 17-14 15-11 17-12 15-10 18-10 22-11 34-14 30-10 30-8 29-6 24-4 19-2z" fill="#F9F9F8"/>
<path transform="translate(808,279)" d="m0 0h23l37 2 28 1 36 4 35 5 29 6 31 7 29 8 21 6 36 12 27 10 33 14 29 14 18 10 22 12 9 6 14 9 31 21 26 20 14 11 12 11 8 7 26 26 9 11 9 10 11 14 14 19 10 16 12 21 11 21 8 19 6 24 5 21 5 18 2 8 3 21 1 21v28l-2 27-3 23-6 27-5 19-10 29-8 18-12 24-10 18-3 4-2 5h-2v3h-2l-2 5-9 12-3 5-2 1-3 5-3 1-1 4-9 8-7 8-18 18-11 9-11 10-13 10-15 11-18 12-21 12-10 6h-2v2l-15 6-2 5-5 21-6 17-8 16-10 17-11 14-11 12-15 15-17 13-15 10-18 11-26 13-28 11-43 14-44 11-29 6h-6v2l-50 7-38 3-22 1h-46l-21-1-6-1-23-1-15-2-19-2-15-2-8-1-1-1-40-6-11-2-1-2-12-1-8-3-16-3-14-5-14-3-16-4-1-1h-11l-8 2h-4v2l-5 2h-6v2l-12 5-10 3-28 11-56 19-5 2-14 4-33 7-27 5-36 4-25 2h-24l-8-4-3-4v-6l7-8 14-10 11-10 7-8 11-14 4-7h5l2-5 6-10 3-1 2 4-7 11-5 10-2 2-3 7-10 13-3 4h-2l-2 4-4 6v5l10 4h11l19-1 16-3 17-3 19-3 23-4 13-4 12-3 11-4 9-2 13-5 13-4 24-9 21-6 21-9 15-8h2l1-3 7-2v-5l2-1h-6l-3-2h-7v-2l-3-1-2-4 8-1 17-1 11-2-5-2v-1l9-1 6-2h9v-2l-2-1 9-2 6-3-1-2 2-1-2-2 2-4 2-1-1-4 7-1 4-1 2-5-3 1-2-2 6-5 7-2 1-5-4-1h-3l-3-3v-8l-1-2-5-3 1-4 6-3 2-2h3v-2h3l2-7 4-4v-9l-1-3v-8l3-1v-9h-2v-3l4 1-2-13-1-3 3-1-2-5-3-5-1-4-4-1 4-1-6-7-5-5-2-3v-3l2-2 1-2 4 2-3-8v-3l-2-5 2-1-7-6v-2l-4-2-8-5-12-5-11-7-17-10-13-10-5-4v-2h-2v-2l-4-2-12-10v-2l-4-2-9-7-6-5v-2l-4-2-11-13-11-14v-2l-3-1v-2l-4-2-8-12-7-14v-2h3l10 15 10 13 11 13 7 8 13 14 8 7 14 12 17 13 21 14 24 14 30 15 25 10 25 9 28 8 29 7 33 6 30 4 24 2h49l22-2 42-6 26-5 41-11 23-8 25-10 30-14 23-13 18-11 18-13 14-11 12-11 17-16 10-10 22-28 7-10 11-18 9-17 9-23 6-19 4-20 2-20v-36l-2-14-5-25-7-21-8-19-11-21-15-22-11-14-12-13-7-8-7-7-8-7-17-14-17-13-21-14-28-16-16-8-26-12-26-10-42-12-39-9-24-4-22-2-7-2-19-1h-66l-5-2 3-2 6 1 1-2 4-2 9-5 3-1-2-4-5-6-1-3 6-12 4-6 4-10 2-7-2-5 3-6 1-6 4-6h2l4-10h-2l2-6 2-3-1-8 2-2 1-2-1-3h2l-2-6h3l-1-5v-14l-2-15-2-4-3-1 1-2-6-6v-2l-5-2-11-6-11-4-5-1-21-1h-13l-5 1h-16l-18 1-8 1h-9l-11 1h-6l-1 2h-7l-21 3-15 2-27 5-40 10-25 8-29 9-36 13-26 11-14 7-8 3-8 1v-3l21-10 10-5 9-3v-2l19-8 25-9 43-14 25-7 35-9 34-7 30-5 34-4 34-3z" fill="#081D27"/>
<path transform="translate(779,215)" d="m0 0h44l64 3 42 4 57 9 38 8 51 13 40 12 32 11 28 11 30 13 17 9 16 8 23 12 18 11 42 28 17 12 18 14 10 8 10 9 11 9 8 8 8 7 19 19 7 8 9 9 7 8 13 16 15 20 11 17 10 17 8 16 11 23 10 28 7 22 8 41 4 29 2 35v39l-3 33-6 35-7 30-7 24-11 29-13 29-12 22-13 21-13 18-13 17-14 17-16 17-18 18-8 7-14 12-16 12-19 14-16 11-10 7-11 7-8 7-20 40-8 12-14 20-13 16-11 12h-2v2l-8 7-9 9-14 11-16 11-21 12-27 14-33 14-31 11-35 10-30 7-39 7-35 5-39 4-29 2-28 1h-43l-28-1-44-4-45-6-36-7-57-14-18-3h-11l-15 3-36 12-49 16-37 11-34 9-36 7-53 8-35 3-17-2-16-6-11-6-13-10-8-8-7-11-5-12-2-10v-21l3-12 8-16 11-13 31-31 11-14 11-18 11-23 10-27 4-14 1-9-4-8-10-9-12-9-10-9-8-7-33-33-7-8-16-16-9-11-10-12-13-17-12-17-11-18-10-18-8-15-8-19-9-26-7-23-6-24-6-36-3-33v-50l4-37 5-29 6-25 9-31 12-32 12-26 10-19 15-25 12-17 11-14 11-13 9-10 7-8 24-24 8-7 13-12 11-10 11-9 12-10 17-13 18-13 24-16 20-12 21-12 43-22 27-12 28-11 37-13 41-13 50-14 41-9 29-5 44-5 33-3zm17 63-58 4-44 5-35 5-29 6-38 9-47 14-44 15-24 10-26 11-28 13-26 14-15 9-14 8-42 28-26 20-11 10-11 9-34 34-7 8-8 8-7 8-9 11-13 19-10 14-12 20-9 17-13 32-6 18-8 28-6 32-2 15-2 33v29l2 25 5 29 7 26 9 27 7 16 11 22 14 24 10 15 11 15 13 16 12 13 20 20 11 9 17 14 14 10 25 16 15 9 13 8 15 8-1 11-6 28-8 27-10 29-8 20-17 33-13 22-12 19-15 16-9 9-16 11-5 6v9l5 6 7 3h24l36-3 25-3 57-11 26-8 59-20 31-12 15-6 20-6h12l32 8 21 6 34 8 41 7 56 7 43 3h75l31-2 28-3 42-6 35-7 47-12 36-12 20-8 25-12 19-10 12-8 17-12 13-11 25-25 13-19 9-16 6-12 8-24 3-14 3-5 21-11 23-13 12-8 17-12 16-12 10-9 11-9 15-14 10-10 9-11 9-10 11-14 11-16 11-18 15-28 9-19 12-34 6-24 6-31 3-32v-34l-3-29-4-24-6-27-6-20-9-24-13-27-13-23-11-17-10-14-10-13-9-11-13-15-9-10-25-25-11-9-9-8-9-7-13-10-16-12-27-18-19-12-13-8-47-25-22-10-37-15-34-12-32-10-31-8-30-7-23-5-30-5-22-3-41-4-41-3z" fill="#F9F9F8"/>
<path transform="translate(576,327)" d="m0 0h11l1 3 8 1 5 2 7 1 5 2 1 3-5 2 5 6 7 2 4 6-1 4 5 1 1 6v5h3l1 7-2 5-1 8-2 3h-2l1 5h-2l-1 4-5 2 2 6 3 2 2 13v11l-4 8-5 2-2 5-5-2v3l2 1-4 4-3 2v3l-5 2-1 3-5-1 1 5-2 2-1 5-4-1 3 4-2 4h-2l-1 9-3 3 4 2-2 6v8l-4 4v4h2l3 5-1 3-3 3 7-1 3-2h3v-2l3-3 7-1 2 2-1 2h-3l-1 3-8 4-5 5-5 4-11 5-6 1v3h-2v2l-7 4-3 3h-3l-1 3-6 2-2 4-5 5-11 9-4 3h-3l-2 4-14 12-15 16-11 14-10 13-3 3v-2h-4l-6 9h3l1-2 3 1-13 23-11 23-9 25-6 26-3 21-1 26v16l-3 8-7 6-17 12-14 10-16 11-11 8-13 10-3 1v2l-11 9-7 8-2 8-1 16h-2l-1 2-1-4v-2l-4-1-4 1-1 3-11 8-7 6-16 10-9 7h-3v2l-17 12-11 9-4 1v2l-4 2-5-1-8-10-9-12-9-14-7-12-6-12-6-10-8-20-3-9-6-19-5-20-5-33-2-16v-40l4-36 3-17 7-29 9-27 11-28 10-21 8-14 18-27 7-11 11-14 39-39 4-5 8-7 7-7 11-9 9-8 8-6 13-10 11-8 25-16 9-6 14-9 16-9 19-9 16-8 10-4 27-11 20-9 14-4 18-5 4-2 12-3 15-5z" fill="#3EA217"/>
<path transform="translate(796,278)" d="m0 0h47l41 3v1h-16l-37-2h-23l-64 4-38 4-23 3-36 6-39 9-26 7-34 10-38 13-17 6-14 6h-2v2l-13 6-23 11-4 1v3l16-5 21-10 24-10 37-13 29-9 27-8 23-6 36-7 29-4 14-1 7-2 16-1h7l11-1 17-1h13l4-1h20l15 1 16 6 9 5 5 3 5 6 2 1-1 2-1 1 4 1 2 4 2 15v19h-3l1 2 2 1-2 4 1 3-2 3h-1l1 9-3 3-2 5h2l-1 5-3 5-4 4-2 6-2 5-1 4 2 5-4 12-5 9-2 2-2 5-3 7 4 6 4 4-2 4-5 2-8 5-9 1 2 2h66l19 1 5 1v1l-30-1h-25l-40 2-25 3-34 6-36 9-29 9-28 11-24 11-20 10-21 13-11 8-17 12-16 13-22 18-12 12-9 11-10 12-13 19-9 15-8 16-10 23-8 25-4 20-1 8v52h-1l-2-6v17l5 23 11 33 7 16 6 11 9 15 9 14-1 3-6-4-2-6-5-1v-3l-4-2-8-14-4-11-3-5v-3h-2l-3-5-4-1v-2l-4-2v-2h-3l-1 2-4-2-1-2-7 1h-3l-1 2v-4l8-1-3-1-3-3 1 3-1 1h-8v2l-6-1-9 1-3-1-3 3-3 2h-4l-2 6-5 2-5 1-7 2-1 5-5 2-4 1-3 6-1 10 1 6-3 5-1 9-6 6-2 7-2 5v11l7 44 3 18 3 17 4 31-2 3-6-1-8-5-11-6-5-3v-2l-4-1-11-7v-2l-4-2-3-2v-2l-4-1-12-9-10-7v-2l-4-2-7-7-6-5v-2h-2l-5-5-13-14-7-8-12-14-3-4v-2l-4-2 1-4 16 20 8-1v-2l9-6 10-8 11-8h2v-2l9-5 8-6 14-9 4-4 11-8 1-2 5-2v2h3l1 5 3-1v-16l3-10 10-10 6-5h2v-2l13-10 14-10 23-16 17-12 11-8 3-3 2-8v-15l1-26 4-26 5-21 7-20 8-18 12-23 5-9-1-2-1 3-4 1 2-5 5-8 5 3 8-11 10-13 12-13 9-10 14-12 1-2 6-3 8-7 7-5 4-6 3-3h3l1-2 5-3 5-4h3v-2h2v-3l3-2 8-1 1-2 6-3 7-5 4-4 6-3 1-2h3l-1-3-6 1-4 2v2l-7 3h-6l1-3 2-1-2-4v-3h-2l-1-4 4-4v-8l2-6h-4l2-5h2l1-9 2-1 1-4-3-3 2-1 2 1 2-5 1-3v-3l5 1 1-4 5-2-1-3 4-1 1-3 2-1-2-4 2-1 3 2 6-6 2-1 3-7v-14l-2-10-3-3-2-6 6-1 2-5-1-2 1-2h2l3-13 1-6v-4h-3l-1-7v-4l-5-1v-5l-4-5-7-2-3-3v-2l-2-1 5-3v-2l-5-1-9-2-11-3-1-2h-11l-18 5-15 5-12 3-4 2-15 4-19 6-13 6-27 11-11 5-7 3-13 6-19 9-18 10-15 10-11 7-20 13-12 9-13 10-12 9-7 7-11 9-56 56-12 16-8 13-10 15-9 14-8 16-9 21-8 20-10 32-7 31-3 23-2 21v40l5 36 3 17 5 20 6 18 3 8 7 18 11 19 4 8 7 12-1 2-6-9-14-25-8-16-7-19-7-22-6-29-4-27-1-25v-21l2-23 3-22 6-31 11-37 7-18 5-12 8-16 12-21 9-13 3-7-5 5-15 23-14 25-3 7-6 13h-2l-3 10-9 29-6 25-4 23-3 29v51l3 26 4 24 5 20-1 4-7-26-5-29-2-25v-29l2-33 5-32 5-23 10-33 12-30 8-16 8-15 12-19 6-8 13-19 9-11 31-33 27-27 11-9 11-10 19-14 12-9 23-15 22-14 11-6 16-9 18-10 30-14 24-10 27-11 44-15 37-11 36-9 27-6 37-6 44-5 21-2z" fill="#247722"/>
<path transform="translate(203,560)" d="m0 0h2l-1 5-14 22-11 19-7 17-6 13-9 27-7 25-7 39-2 18-1 15v31l2 21 3 21 6 29 11 33 7 16 6 12 13 23 4 6 5 5 2 3 2 7 5 5 9 11 9 10 12 14 7 6v2h2l4 5 8 7 5 4v2l4 2 10 7 9 7 3 1 5 5 2 1v2l5 2 7 5 3 1v2l5 2 11 6 10 6h4l1-3-6-42-3-18-8-49v-11l2-5 3-8 5-5 1-9 3-5-1-11 2-8 3-4 8-2 1-5 2-2 10-1 5-3 2-3 1-2 9-3 1-3 6 1 9-1 3 2v-2l8-1-1-4 4 2v2l3-1v2l-2 1h-6l1 2 7-1 7 1 1 2 4-1 4 4v2l5 1 2 5h2l7 15 3 7 7 12 2 1v3l5 1 3 6 5 3-4-10 5 5 7 10 6 9 4 5 4 7 5 5v2l3 1 2 4 4 2 1 6 2 1-2 6 3 4v2l3 1 4 7 4 11 4 9 3 3 3 7 3 4 1 9-4 13-3 2-2 7-6 8v3h2l-2 5-7 1-4 5-4 1 2 3 1 6h-5l-3 6-6 2v9l-2 5-3 2-1 6-3 3-2 7-7 9h-2l-1 2-1-2h-2l-1 11-1 5h-2l1 3-2 4-4 4 4 4-1 8-6 4h-2v2l-7 4-2 6-7 8-10 4-12 2-7 3-4 4-6 4-5-1-11 3v7l-3 2-3-1 1-2-4 1-3 1-1 3-8 6-6 4-5 5-8 13-4 4-3 6-11 7-10 7-8 7h-3l1-8 12-21 8-16h2l2-6 8-18 5-10 13-36 9-30 9-29 2-7 3-6v-7l-4-8-3-3-11-6-7-5v-2l-13-1-14-9-6-3v-2l-6-2 3 3 5 4-4-1-15-9-12-8-6-5-9-7-11-8v-2l-5-2-6-5-8-7-10-9 4 8 4 2 12 12 3 2v2l4 2 9 8v3l5 1 1 2 7 4 12 8 14 10 11 7 1 4-5-2-22-14-17-12-13-11-11-9-11-10-21-21-9-11-12-15-13-19-11-18-12-22-11-23-5-13-5-16-3-15-5-23-4-28-1-11v-51l4-36 6-30 11-37 5-13h2l3-9 4-7 3-7 10-19 17-26z" fill="#105927"/>
<path transform="translate(808,279)" d="m0 0h23l37 2 28 1 36 4 35 5 29 6 31 7 29 8 21 6 36 12 27 10 33 14 29 14 18 10 22 12 9 6 14 9 31 21 26 20 14 11 12 11 8 7 26 26 9 11 9 10 11 14 14 19 10 16 2 5-3-1v-2h-2v-3h-2l-4-7-3-5v-2h-2l-3-4v-3l-3-1v-3h-2l-2-6h-2l-4-5v-3l-4-2-4-4v-3h-2v-3h-3l-2-5-3-2-2-4-4-1-5-7v-2h-2l-1-3-5-4v-2l-5-2-15-15-3-2-3-5-6-3-6-4-8-8-3-1v-2l-4-1v-2h-2v-2l-4-2-18-13-7-5v-2h-4v-2h-2v-2h-3v-2h-4v-2l-5-2-1-3-5-1-4-2v-2l-5-1v-3l-6-1v-2l-5-2-26-14v-2l-6-1v-2h-4v-2l-5-1-5-2v-2l-10-3-19-9v-2h-2v-2l-5-1-19-7-18-8-9-2v-2l-12-2-3-1v-2l-9-2-12-3-7-3-26-7-11-1h-4l13 5 16 5 16 8 11 6-1 3h-2l1 5-5 1-5-1-1 2v2h-3l1 2h-3v3h-2v7l-3 3-3-1v-2h-2l-2 5v5l3 1 4 8v2h-2l5 11v18l-1 15 2 11-1 5v8l2-1 1 4v9l2-1 4 3 3 9 1 11-1 2h-2l-3 6 6 1 3 3-1 2 6 1-2 3h-2v3h2l-2 5h-2v2h2l2 6-3 2-2 2 6 2v2l-5 1-7-1-2-1-1 2 4 2-9-2-7-4-20-7-14-4v2l-59-16-38-8-22-3-13-1-7-2-19-1h-66l-5-2 3-2 6 1 1-2 4-2 9-5 3-1-2-4-5-6-1-3 6-12 4-6 4-10 2-7-2-5 3-6 1-6 4-6h2l4-10h-2l2-6 2-3-1-8 2-2 1-2-1-3h2l-2-6h3l-1-5v-14l-2-15-2-4-3-1 1-2-6-6v-2l-5-2-11-6-11-4-5-1-21-1h-13l-5 1h-16l-18 1-8 1h-9l-11 1h-6l-1 2h-7l-21 3-15 2-27 5-40 10-25 8-29 9-36 13-26 11-14 7-8 3-8 1v-3l21-10 10-5 9-3v-2l19-8 25-9 43-14 25-7 35-9 34-7 30-5 34-4 34-3z" fill="#0D4527"/>
<path transform="translate(460,916)" d="m0 0h3l10 15 10 13 11 13 7 8 13 14 8 7 14 12 17 13 21 14 24 14 30 15 25 10 25 9 28 8 29 7 33 6 30 4 24 2h56v1l-6 1h-56l-36-4-13-1 5 1v2l10 2 17 3 9 3 4 1v1l-6 1h-11l-6-2-12-2-11-4-15-4-13-2v2l4-1 1 1 7 1 5 4h4v2l5 1 9 6-6 1-1 2h-2l-1-1-3 3-8-1-6-2v2l-2 1 6 4 7 2 1 5 2 2 7 2 9 7 4 4v2l3 2 1-2 7 1v3l-3 1 1 3v3h5l-1 3-3 1-4-2-1 2h2v2l6 2-4 1-1 1 6 1 5-3 4-1 8-1 4 1 1 4 6-1 4 2 6-3h5l3 10 2 4 5 1 2 11 1 11v4l-1 3-8 4-9 3-7-1-6 1-9-2-13 2-3 2h-5l8 4 11 1 2 1h12l2-1h6l2-2 5 1 14 7 16-3 5 1 3 3h-2l-1 7-5 3h-13l-7 1v2l-3 1 5 1h6l-1 2-7 2 1 1h9v1l-16 3-9 2 2 3-1 4-5 3-9 2-8 3-3 3-9 3v1l-15 2-15 4-4 2-12-1-14 7-5 3h-10v-2l-7 1-4-4-11-1-9-1-1 1-10 1 11 3v1h-7l-4 1 6 2v1l-5 1v1l-20 1-25-3-6-1-2 1h-10l-18-5-25-5-5-2-21-2h-7l-10 4-8 4h-4v2l-10 4-1 1 8-1 9-3 2 1v-2l8-3 14-3 9 1 7 2v2l10 2 21 5 6 2 26 6 1 3-7-1-5-2-16-3-14-5-14-3-16-4-1-1h-11l-8 2h-4v2l-5 2h-6v2l-12 5-10 3-28 11-56 19-5 2-14 4-33 7-27 5-36 4-25 2h-24l-8-4-3-4v-6l7-8 14-10 11-10 7-8 11-14 4-7h5l2-5 6-10 3-1 2 4-7 11-5 10-2 2-3 7-10 13-3 4h-2l-2 4-4 6v5l10 4h11l19-1 16-3 17-3 19-3 23-4 13-4 12-3 11-4 9-2 13-5 13-4 24-9 21-6 21-9 15-8h2l1-3 7-2v-5l2-1h-6l-3-2h-7v-2l-3-1-2-4 8-1 17-1 11-2-5-2v-1l9-1 6-2h9v-2l-2-1 9-2 6-3-1-2 2-1-2-2 2-4 2-1-1-4 7-1 4-1 2-5-3 1-2-2 6-5 7-2 1-5-4-1h-3l-3-3v-8l-1-2-5-3 1-4 6-3 2-2h3v-2h3l2-7 4-4v-9l-1-3v-8l3-1v-9h-2v-3l4 1-2-13-1-3 3-1-2-5-3-5-1-4-4-1 4-1-6-7-5-5-2-3v-3l2-2 1-2 4 2-3-8v-3l-2-5 2-1-7-6v-2l-4-2-8-5-12-5-11-7-17-10-13-10-5-4v-2h-2v-2l-4-2-12-10v-2l-4-2-9-7-6-5v-2l-4-2-11-13-11-14v-2l-3-1v-2l-4-2-8-12-7-14z" fill="#0B3128"/>
<path transform="translate(1098,640)" d="m0 0h36l10 2-1 5-7 12-10 13-13 17-14 19-9 12-13 16-15 20-10 13-9 12 1 5 8 12 12 17 14 20 11 15 16 24 13 19 15 22 13 18 4 8-6 2-66 2-5-1-10-14-13-19-10-15-12-17-14-19-12-17-14-20-12-18-3-5v-2h-2l2 40v106l-10 1h-55l-1-30-1-139-1-124 1-9 39-2h27l1 17 1 64v40l5-5 7-10 13-16 11-14 29-38 12-16 8-11 7-9 13-2z" fill="#081D26"/>
<path transform="translate(758,639)" d="m0 0h29l20 3 20 6 16 7 13 7 9 7 2 2-1 5-6 10-28 42-4-1-7-6-17-9-16-4-6-1h-18l-20 4-13 5-11 8-11 12-7 10-6 12-4 14-2 14v20l3 16 5 15 6 11 8 10 7 7 10 7 13 6 15 4h25l19-5 16-6 13-8 4-3 5 1 8 12 10 14 11 16 3 7-1 4-15 11-21 11-19 7-17 5-10 2h-33l-17-3-22-6-14-6-19-11-14-11-17-16-10-14-8-14-7-15-6-20-4-24-1-8v-16l4-25 4-16 6-16 9-17 11-16 11-12 9-9 18-13 16-8 15-7 19-5z" fill="#115A26"/>
<path transform="translate(426,384)" d="m0 0 2 1-1 8-4 12-5 25-2 16v9l-2 15-2 9-3 3h-3v2l-5-1v2h-3l-1 3-7 1-2 4-8 11-3 3 3-1-2 4-10 11-8 6-2 6-5 1v3l-3 3-1 5 3 2-4 6-7 4-5-1-3-3h2v-3l-6 4-2 3v-2l-3 1-5 8-6-1v7l-5 7-6 3h-2l-2 10-1 3h-2l-1 7h-2l1 8-6 4-4 2-6 9-4-3-2 6-3 5-5-2-5-3-2-7h-4l-1 3-7 6-4 7-4 4h-2l-1 7-4 6-5 2-2 6-3 5-2 6-3 2-2-5-3-1-2 9-3 2-2-1-5 1-3-3-1 2h-2l-2 5v5l-4 4-2-4-4-6v-11l5-12 1-4 1-18 5-17 4-11 1-5 4-6 4-8-1-2 5-6 4-13 4-7 10-14 7-11 15-15 9-12 6-5 5-8 6-7h2v-2l8-7 3-1v-2l7-5h2v-2l8-7 3-1v-2l6-4h2v-2l14-10h3v-2l18-13 14-8h2v-2l9-5 13-9 6-4 15-8 5-2z" fill="#4BBC17"/>
<path transform="translate(1026,308)" d="m0 0 21 3 28 8 9 3 13 4v2l7 1-2 2-12-3v2l6 1v2l15 5 15 6 26 12 6 9-1 1 5 4 5 5 2 7h2v2l-3 1v2l3 1-1 2h-3l1 2h-5l2 4 5 1 5 2 2 4 3 1v14l-1 7 2 7v2l4 15 2 4-1 4-1 2 6 2 4 3 4 7 4 5v4l-8 1-1 9-2 5 2 9-1 3v13l-4 7-4 4-3 6-5 1v6l2 1 3-2h6l1 1-1 7-5 1h-4v5l1 2h-2v2l2 1h-10l3 5h-4l-2-5-4-2h-8l-7-1v1h-9l-5-1-4 1-6-2-7-4 2 4-5-2-28-16-16-8-26-12-21-8v-3l8 1 18 6 9 4 12 5-1-3h3l8 1 2-1 2 1v-2l-7-1 2-5 3-1-1-5h-2v-2l3-3 1-2h-2v-3l2-2-5-1v-4l-7-3 3-6h2l-1-13-4-10-3-1-2 1v-12h-3v-9l1-7-2-10 1-14v-18l-4-8v-3h2l-5-10-3-3 1-4 2-4 3-1v3l4-2v-8l3 1v-3l2-1-1-2h3l-1-2 8-1 2 1 1-2 1-4h2l-1-3h-2l-3-3-16-8-10-4-14-4-10-5z" fill="#0B3128"/>
<path transform="translate(801,288)" d="m0 0h36l22 2 15 1 3 2 9 3 7 3 8 2 13 7 5 4v2l9 3 5 3 12 5 4 3v3l-4 2 1 5 2 3 2 9 6 5 4 9-1 7 1 6-3 3-1 6v6l-4 2v4l3 3 1 4h4l1 7 2 7-3 8-4 9-5 5-3 1v2l-4 1-1 8-6-3h-2l1 3-3 1-3 4-4-3-5 2-3 12-7 3-21 3h-24l-9 3-42 2h-16l-5-2 3-2 6 1 1-2 4-2 9-5 3-1-2-4-5-6-1-3 6-12 4-6 4-10 2-7-2-5 3-6 1-6 4-6h2l4-10h-2l2-6 2-3-1-8 2-2 1-2-1-3h2l-2-6h3l-1-5v-14l-2-15-2-4-3-1 1-2-6-6v-2l-5-2-11-6-11-4-5-1-21-1h-13l-5 1h-16l-18 1-8 1h-9l-11 1h-6v-1l25-3 44-3z" fill="#105927"/>
<path transform="translate(726,1134)" d="m0 0h8l4 3v2l6 1 7 3 9 2 6 1 7 7 2 4 6 3 4 5 6 3 5-1 5-2 6-2 8 1 1 4 6-1 4 2 6-3h5l3 10 2 4 5 1 2 11 1 11v4l-1 3-8 4-9 3-7-1-6 1-9-2-13 2-3 2h-5l8 4 11 1 2 1h12l2-1h6l2-2 5 1 14 7 16-3 5 1 3 3h-2l-1 7-5 3h-13l-7 1v2l-3 1 5 1h6l-1 2-7 2 1 1h9v1l-16 3-9 2 2 3-1 4-5 3-9 2-8 3-3 3-9 3v1l-15 2-15 4-4 2-12-1-14 7-5 3h-10v-2l-7 1-4-4-11-1-9-1-1 1-16 2-5-1h-14l-4-2 8-4v-3l4-2-1-2 1-2 7-3-8-4-6-2v-1l-5-1v-3l3-2 4-2 9-1 4-4 7-2 15 1-2-6-6-3 4-1 1-2 1 3h5l3 2-1-6-4-2 6-2h7l8 3h7l2-1 1-4-3-2v-2h-2v-2l-13-4-10-6-2-4-2-6-2-3-4-1-2-3 1-6 2-2 2-8 1-1 11-1 8-4-1-11 5-2 2-8 5 1 2 4 1-2-4-4v-2l-2-1 5-2-3-3-1-5-2-1h7l4 2h3l-7-6 2-2z" fill="#0E302E"/>
<path transform="translate(492,620)" d="m0 0h3l-1 4-11 13-14 20-10 16-8 16-9 20-10 30-4 20-1 8v52h-1l-2-6v17l5 23 11 33 7 16 6 11 9 15 9 14-1 3-6-4-2-6-5-1v-3l-4-2-8-14-4-11-3-5v-3h-2l-3-5-4-1v-2l-4-2v-2h-3l-1 2-4-2-1-2-7 1h-3l-1 2v-4l8-1-3-1-3-3 1 3-1 1h-8v2l-6-1-9 1-3-1-3 3-3 2h-4l-2 6-5 2-5 1-7 2-1 5-5 2-4 1-3 6-1 10 1 6-3 5-1 9-6 6-2 7-2 5v11l7 44 3 18 3 17 4 31-2 3-6-1-8-5-11-6-5-3v-2l-4-1-11-7v-2l-4-2-3-2v-2l-4-1-12-9-10-7v-2l-4-2-7-7-6-5v-2h-2l-5-5-13-14-7-8-12-14-3-4v-2l-4-2 1-4 16 20 8-1v-2l9-6 10-8 11-8h2v-2l9-5 8-6 14-9 4-4 11-8 1-2 5-2v2h3l1 5 3-1v-16l3-10 10-10 6-5h2v-2l13-10 14-10 23-16 17-12 11-8 3-3 2-8v-15l1-26 4-26 5-21 7-20 8-18 12-23 5-9-1-2-1 3-4 1 2-5 5-8 5 3 8-11 5-4 8-10z" fill="#237623"/>
<path transform="translate(743,652)" d="m0 0h14l10 2 2 1v3h3v6l-1 5-2 5h-3l-6-1-1 3-6 2-9 4-7 3-2 5-8 4-3 3-7 2-10 9-2 1-4 11v5l-3 5-3 3-1 4-3 10-4 7-3 9-2 7-1 14 1 9v8l-1 11-2 13v5h-2l-2 4v5l3 1v2h2l1 4 3 1 4 8 1 13 2 5-2 5-3 3 4 2v4l-1 8-3-3-1 2h-2l-1 2-14-2-2-1-1 2 2 1-7-1v-2l-4-2-8-8-4-2-2-2-1 2-6-10-8-17-6-20-4-24-1-8v-16l4-25 1-5 1 2h2v-3h2l2-9h2l1-4 11-21 9-12 8-10 6-7h2l2-4 5-5 11-8 24-13 21-8z" fill="#247722"/>
<path transform="translate(1126,561)" d="m0 0 7 1 3 1 3 3v2l5 1 11 9 8 6 3 1v2l4 1 13 10 6 7v2l3 1v2l3 1 7 8 3 2 2 6 4 2 4 4v3h2l10 14v3l3 1 8 15 8 16 4 6 3 9 3 6 2 5 5 10 3 12v7l3 6 6 54-1 35-4 15-3 16-3 6-2 9-4 11-5 10-3 8h-2l-2 7-5 6-2 4h-2l-3 11-5 8h-2l-2 5-4 5h-2l-1 3h-2l-2 5-9 10-7 8h-2l-2 5-11 7-6 5-1 2h-2l-2 4-5 6-3 4h-2l-2 4-8 7-5 5-12 7-10 5-5 3-5 5-3 1-2 4-18 10-10 4-10 5-18 6-24 7-24 8-7 3-26 7-11 1-28 6-10 2-13 1h-32l-29-3-4-1-33-1-3-2-9-2-12-3-14-3-3-1v-2l-8-1v-1h9l33 4 10 1h56l58-8 31-6 41-11 23-8 25-10 30-14 23-13 18-11 18-13 14-11 12-11 17-16 10-10 22-28 7-10 11-18 9-17 9-23 6-19 4-20 2-20v-36l-2-14-5-25-7-21-8-19-11-21-15-22-11-14-12-13-7-8-7-7-8-7-17-14-17-13-7-5z" fill="#061411"/>
<path transform="translate(723,716)" d="m0 0m-1 1m-1 1m-3 1h3l-1 5-11 12-7 10-6 12-4 14-2 14v20l3 16 5 15 6 11 8 10 7 7 10 7 13 6 15 4h25l19-5 16-6 13-8 4-3 5 1 8 12 10 14 11 16 3 7-1 4-15 11-21 11-19 7-17 5-10 2h-33l-17-3-22-6-14-6-19-11-14-11-17-16-10-14-1-5 3 1 7 8 11 12 6 5v2l5 2 11 9 8 4 12 5 10 3h3v2l6-2 2-1-1-3 2-4 4-2 2-10 1-6-2-4v-2l-5-6-2-5-3-5-7-6-4-5v-2l-3-1v-2h-2l-12-19-6-15-3-11-1-12v-27l3-15 5-14 8-16 6-4 7-9z" fill="#0D4427"/>
<path transform="translate(1098,640)" d="m0 0h36l10 2-1 5-7 12-10 13-13 17-14 19-9 12-13 16-15 20-10 13-9 12 1 5 8 12 12 17 14 20 11 15 16 24 13 19 15 22 13 18 4 8-6 2-66 2-5-1-10-14-13-19-10-15-12-17-14-19-12-17-14-20-11-16v-4h2v2l4 1 8 10 6 7 6 8 8 10 9 12v2h2l1 4 3 1 3 6 1 3h3l5 9 8 13 6 11 4 5 4 4 7 8 7 9 4 3 11 2h22l6-2 3-4h-3l-1-3 2-3v-5l-6-5-2-4-1-5-5-6-1-4-3-4-5-10-5-5-6-9-3-6-9-14-20-28-11-18-3-5-2-10 1-7 7-13h2l2-5 3-5h2l1-6 3-1 1-3h2v-3h3v-3h2l2-5 6-8 3-3 8-13 5-7h2l2-5 10-13h2l-1-10-5-6-4-2h-17l-11 4-5 6-10 13-4 2-2 5-8 11-5 5-7 8h-2l-1 3-8 7-6 7h-2l-1 4h-2l-1 3-5 5-11 9-6 1 2-7 11-14 13-16 15-20 14-18 9-12 13-18 8-10 13-2z" fill="#071712"/>
<path transform="translate(1145,382)" d="m0 0 5 1 2 2 5 1 8 8v2l5 1 5 2 2 4 3 1v14l-1 7 2 7v2l4 15 2 4-1 4-1 2 6 2 4 3 4 7 4 5v4l-8 1-1 9-2 5 2 9-1 3v13l-4 7-4 4-3 6-5 1v5l-4 1-5-2h-7l-7-1-2-5v-3l-1-11-5-2v-2h-2l-1-4 1-5-2-3 1-6-5-5 2-2v-4l-2-3-1-9-1-2-2 2-2-4-3 1-3-9v-5l-2-4-1-10h-2l1 3-3 1-2-4 1-12-4-5-2 1-2-2 1-9 2-2 1-13h2l1-3h2l1-2h2v-3h-5l-1-2 3-9 6 1 1-2 2 2 2-1 2 1 2-3 4 2v-2z" fill="#0E302E"/>
<path transform="translate(1089,327)" d="m0 0 9 2 5 1 9 1v2l9 1 11 5 16 6 15 6v2h2v2l9 3 10 5 10 4v2l10 3v2h4v2l6 1v2l6 2 25 14v2l6 1v3l5 1v2l4 1 5 2 4 4 2 1v2h4v2h3v2h2v2h4l5 5 13 9 11 8v2h2v2l4 1v2l4 1v2l5 2 3 4 5 3 8 5 2 4 8 7 9 9 5 3 5 5 1 4h2l4 6 1 3 5 1 2 4 3 2 1 5h3v3h2l3 5 5 4 1 5 3 1v2h2l2 6h2l1 3 2 1 3 5v2h2l6 10 1 4h2v3h2v2l4 1 10 18 10 19 8 19 6 24 5 21 5 18 1 17 1 5v14l-4-4-6-19-5-21-1-11-5-13-6-10-5-17-5-13-3-7-9-14-4-8-10-13-10-19-7-7-3-4v-2l-4-2-3-5-4-6-4-7-3-5-6-9-11-7-5-2-5-5-5-8-4-9-7-6-4-4-11-8-12-11-11-7v-2l-4-1-10-6-10-10-13-9-11-7-13-9-3-1v-2l-4-1-7-4-12-9-10-5-10-6-8-4-13-5-9-4-28-13-20-9-14-4-8-5-5-2z" fill="#040E11"/>
<path transform="translate(945,641)" d="m0 0h27l1 17 1 64v40h4l-1 8-3 8-3 1-2-16-3-29-1-38-1-26-3-7-1-2-8-1-13-1-5 1-12 3-4 8-2 10v38l-1 11v47l1 18v22l-1 6v21l1 12 1 9-2 20v23l1 15 2 9 3 3 3 1 17 1 15-1 5-2 2-5 1-22 1-13 1-5 1-16v-39l2-15h2l1 14 1 5v106l-10 1h-55l-1-30-1-139-1-124 1-9z" fill="#081A12"/>
<path transform="translate(796,278)" d="m0 0h47l41 3v1h-16l-37-2h-23l-64 4-38 4-23 3-36 6-39 9-26 7-34 10-38 13-17 6-14 6h-2v2l-13 6-23 11-4 1v3l6-1-1 2-23 11-25 13-10 5-15 10-10 7-14 9-8 4-8 7-11 9-6 7-10 7-7 7-11 9-56 56-12 16-8 13-10 15-9 14-8 16-9 21-8 20-10 32-7 31-3 23-2 21v40l5 36 3 17 5 20 6 18 3 8 7 18 11 19 4 8 7 12-1 2-6-9-14-25-8-16-7-19-7-22-6-29-4-27-1-25v-21l2-23 3-22 6-31 11-37 7-18 5-12 8-16 12-21 9-13 3-7-5 5-15 23-14 25-3 7-6 13h-2l-3 10-9 29-6 25-4 23-3 29v51l3 26 4 24 5 20-1 4-7-26-5-29-2-25v-29l2-33 5-32 5-23 10-33 12-30 8-16 8-15 12-19 6-8 13-19 9-11 31-33 27-27 11-9 11-10 19-14 12-9 23-15 22-14 11-6 16-9 18-10 30-14 24-10 27-11 44-15 37-11 36-9 27-6 37-6 44-5 21-2z" fill="#105927"/>
<path transform="translate(1466,635)" d="m0 0 3 4 8 25 6 26 4 21 3 24 1 13v34l-3 32-8 40-7 24-9 25-14 29-13 23-13 21-22 28-12 13-7 8-13 13-11 9-12 11-17 13-17 12-15 10-29 16-16 9-3 7-4 18-7 19-8 16-10 16-11 15-27 27-17 13-15 10-13 8-32 16-25 10-36 12-56 14-32 6-43 6-33 3-19 1h-75l-43-3-56-7-41-7-39-9-31-9-17-4h-12l-20 6-28 11-27 10-56 19-24 7-53 10-35 4-26 2h-24l-8-4-4-5v-9l6-7 12-8 10-9 11-11 8-10 16-26 12-22 13-25 1 4-12 23-13 23-12 20-11 14-11 12-8 7-16 12-4 5v6l5 5 5 2h24l46-4 26-4 41-8 16-4 6-2 72-25 22-9 10-3 7-2v-2l11-2v-2l12-3h11l9 3 15 4 14 3 7 3 20 4 4 2 12 1 1 3 11 1 40 6 1 1 19 2 10 2 13 1 15 2 23 1 6 1 21 1h46l36-2 32-3 35-5h7v-2l44-9 38-10 46-15 26-11 26-13 25-16 13-10 11-9 19-19 11-14 9-14 10-18 6-15 6-22 2-9 4-4 11-4h2v-2l23-13 18-11 17-12 13-10 11-9 15-13 12-11 15-15 5-6 6-5 1-3 4-3 2-4 3-2 4-7 9-13h2v-3l2-1 3-7 8-14 14-27 7-15 10-28 6-21 6-25 3-19 2-20 1-17v-28l-1-21-4-27-3-8-4-18-6-21-2-10z" fill="#37961A"/>
<path transform="translate(203,560)" d="m0 0h2l-1 5-14 22-11 19-7 17-6 13-9 27-7 25-7 39-2 18-1 15v31l2 21 3 21 6 29 11 33 7 16 6 12 13 23 4 6 5 5 2 3 2 7 5 5 9 11 9 10 8 9 2 5 20 20 11 9 15 12 14 10 20 14 5 5 5 4-4-1-15-9-12-8-6-5-9-7-11-8v-2l-5-2-6-5-8-7-10-9 4 8 4 2 12 12 3 2v2l4 2 9 8v3l5 1 1 2 7 4 12 8 14 10 11 7 1 4-5-2-22-14-17-12-13-11-11-9-11-10-21-21-9-11-12-15-13-19-11-18-12-22-11-23-5-13-5-16-3-15-5-23-4-28-1-11v-51l4-36 6-30 11-37 5-13h2l3-9 4-7 3-7 10-19 17-26z" fill="#0C3E28"/>
<path transform="translate(758,639)" d="m0 0h29l20 3 20 6 16 7 13 7 9 7 2 2-1 5-6 10-28 42-4-1-7-6-17-9-16-4-6-1h-18l-20 4-13 5-8 6h-2v-3l-6 3-3 1-2 4-7 8-2-1 8-10 5-5 7-6 7-5 7-3 9-3 17-4 7-1h21l6 2h7l7 4h2l4 4 6 3 3 3v2h4l7-8 3-4h2l2-6h2l2-5 4-2 2-4 5-3 1-12-8-4v-2l-5-2-11-4h-3v-2l-11-2-2-1-4 1v-2h-5l-4-2-21-1-9-1h-20l-22 4-9 4-21 9-12 7-11 6-5 4-4 5-4 4h-2l-2 4-8 9-10 13-9 16-6 12h-2l-2 9h-2v3h-2v-7l5-15 9-19 9-14 10-13 15-15 18-13 16-8 15-7 19-5z" fill="#104C26"/>
<path transform="translate(682,801)" d="m0 0h1l2 19 5 17 8 16 7 10v2h2l7 8v2l3 1 5 5 3 5 3 6 5 7v2l1 6-1 3-2 9-5 4-1 3 1 3-6 2h-5l-7-3-15-5-6-4-5-3-9-7-5-3-4-5-8-7-9-10 1-2 10 10 2 1v2h5l1-3 13 3 6-1 1-3 2 3 1-7v-4l-3-2 1-3h2l1-6-2-4-1-13-4-8-3-3v-2h-2l-3-3-1-9 4-1 1-14 2-13z" fill="#105927"/>
<path transform="translate(706,859)" d="m0 0 8 6 6 5 8 6 7 2h7l15 4h25l19-5 16-6 13-8 4-3 5 1 8 12 10 14 11 16 3 7-1 4-15 11-21 11-19 7-17 5-10 2h-18l-15-2-1-2h31l19-7 9-5 8-3 12-8 8-10 2-5h2l-3-7-6-9-4-2h-22l-6 2-14 1-9-1-22-1-24-8-15-9-7-6-5-5z" fill="#0B3228"/>
<path transform="translate(1224,316)" d="m0 0 5 1 26 13 40 24 12 8 19 13 9 7 19 14 9 7 9 8 11 8 29 29 7 8 17 17 9 11 7 8 4 7 6 7 8 11 9 14 14 25 16 32 7 18 2 8 6 16 2 12v5l-3-1-12-33-17-36-14-26-20-32-8-11-14-19-9-10-7-8-11-12-26-26-8-7-10-9-11-9-16-13-17-12-36-26-14-10-20-12-18-11-10-6z" fill="#3DA118"/>
<path transform="translate(1080,1280)" d="m0 0h9v3l-1 2h-2v2l-41 14-41 11-42 9h-6v2l-50 7-69 2-10 1h-15l-9-1-49-3-32-3-25-4-3-1 1-2 24 1 20 3h8l5-1 19 2h32l14-1 25 1h24l34-3 10-2 17-1 17-3 14-2 11-3 13-1 12-5 15-3 11-2 13-4 11-2 14-6 11-2z" fill="#040E12"/>
<path transform="translate(1253,701)" d="m0 0 2 2 3 8 5 10 3 12v7l3 6 6 54-1 35-4 15-3 16-3 6-2 9-4 11-5 10-3 8h-2l-2 7-5 6-2 4h-2l-3 11-5 8h-2l-2 5-4 5h-2l-1 3h-2l-2 5-9 10-7 8h-2l-2 5-11 7-6 5-1 2h-2l-2 4-5 6-3 4h-2l-2 4-8 7-5 5-12 7-10 5-5 3-5 5-3 1-2 4-18 10-10 4-10 5-18 6-14 4-3-1h2v-2l9-5 5-2 4-3 10-5 8-6 12-6 7-4 8-3 11-7 9-6 5-3h2v-2l8-5 14-9 13-13 5-3 5-5 15-10 8-7 4-6h2l2-4 7-9 3-5h2l2-5 7-12 8-14 5-6 2-5h2l2-7 2-4h2l1-5 3-7 5-19 2-6 4-20 3-14 1-8 1-21v-18l-1-17-1-3-1-9-2-10-2-16-3-10-5-9-2-7z" fill="#041516"/>
<path transform="translate(460,916)" d="m0 0h3l10 15 10 13 11 13 7 8 13 14 8 7 14 12 17 13 21 14 24 14 30 15 25 10 25 9 28 8 29 7 33 6 30 4 24 2h56v1l-6 1h-56l-36-4-13-1 5 1v2l10 2 17 3 9 3 4 1v1l-6 1h-11l-6-2-12-2-11-4-15-4-17-3-15-5-11-3-10-2-3-2-16-4-12-2-10-4-10-3-12-7-13-8-14-7-7-4-8-2-10-7-6-4-12-6-10-6v-2l-5-2-7-4v-2l-4-2-12-10v-2l-4-2-9-7-6-5v-2l-4-2-11-13-11-14v-2l-3-1v-2l-4-2-8-12-7-14z" fill="#0D2F18"/>
<path transform="translate(796,278)" d="m0 0h47l41 3v1h-16l-37-2h-23l-64 4-38 4-23 3-36 6-39 9-26 7-34 10-38 13-17 6-37 16-14 6-16 8-21 11-24 14-22 14-30 20-14 10-11 9-14 12-12 11-8 7-8 8-7 8-19 19-7 8-11 13-12 17-13 19-11 17-14 27-10 24-10 32-6 25-4 23-3 29v51l3 26 4 24 5 20-1 4-7-26-5-29-2-25v-29l2-33 5-32 5-23 10-33 12-30 8-16 8-15 12-19 6-8 13-19 9-11 31-33 27-27 11-9 11-10 19-14 12-9 23-15 22-14 11-6 16-9 18-10 30-14 24-10 27-11 44-15 37-11 36-9 27-6 37-6 44-5 21-2z" fill="#3EA218"/>
<path transform="translate(203,560)" d="m0 0h2l-1 5-14 22-11 19-7 17-6 13-9 27-7 25-7 39-2 18-1 15v31l2 21 3 21 5 24v5l-1-4h-2l2 13 3 14 2 6v4l4 1 9 24 4 10 2 4 2 1 5 12-1 2-10-18-11-22-6-16-5-16-3-15-5-23-4-28-1-11v-51l4-36 6-30 11-37 5-13h2l3-9 4-7 3-7 10-19 17-26z" fill="#104F27"/>
<path transform="translate(1089,327)" d="m0 0 9 2 5 1 9 1v2l9 1 11 5 16 6 15 6v2h2v2l9 3 10 5 10 4v2l10 3v2h4v2l6 1v2l4 2 1 5h2v2l6 3v2l6 2 16 8v2l5 2 12 9 18 12v2l5 2 5 4v2l4 1v2l4 1v2l4 1 5 3v2l4 2 4 3v2h3l5 5 8 7 9 7 7 8 4 5 5 5 4 5 8 7 8 8-2 2-10-7-7-3-5-5-5-8-4-9-7-6-4-4-11-8-12-11-11-7v-2l-4-1-10-6-10-10-13-9-11-7-13-9-3-1v-2l-4-1-7-4-12-9-10-5-10-6-8-4-13-5-9-4-28-13-20-9-14-4-8-5-5-2z" fill="#041617"/>
<path transform="translate(331,1229)" d="m0 0 1 4-12 23-13 23-12 20-11 14-11 12-8 7-16 12-4 5v6l5 5 5 2h24l46-4 26-4 41-8 16-4 6-2 72-25 22-9 10-3 7-2v-2l11-2v-2l12-3h11l9 3 15 4 14 3 7 3 20 4 4 2 12 1 1 3 11 1 40 6 1 1 19 2 10 2 13 1 15 2 23 1 6 1 21 1h46l36-2 32-3 29-4h6v2l-35 5-33 3-19 1h-75l-43-3-56-7-41-7-39-9-31-9-17-4h-12l-20 6-28 11-27 10-56 19-24 7-53 10-35 4-26 2h-24l-8-4-4-5v-9l6-7 12-8 10-9 11-11 8-10 16-26 12-22z" fill="#3A9B19"/>
<path transform="translate(377,1131)" d="m0 0 3 1v16l-3 19-5 18-5 14-2 5-3 12-9 22-3 8-8 15-6 11-4 6-4 4-6 8-4 4h-3l2-8 9-17 12-26 7-16 11-30 16-53 4-12z" fill="#247822"/>
<path transform="translate(834,860)" d="m0 0 5 1 8 12 10 14 11 16 3 7-1 4-15 11-13 7-9 1v2l-2-1 5-6 5-3h4l2-4 5-2 2-4 6-4h2l-4-9-6-9v-2h-2l-9-9-9-3-18 4-5 2-26 4h-19l-16-4-11-4-2-1v-2h7l15 4h25l19-5 16-6 13-8z" fill="#0C2514"/>
<path transform="translate(885,282)" d="m0 0h11l36 4 35 5 29 6 31 7 29 8 21 6 36 12 27 10 33 14 29 14 18 10 22 12 9 6 14 9 31 21 26 20 14 11 12 11 8 7 26 26 9 11 9 10 11 14 14 19 10 16 2 5-3-1v-2h-2v-3h-2l-4-7-3-5v-2h-2l-3-4v-3l-3-1v-3h-2l-2-6h-2l-4-5v-3l-4-2-4-4v-3h-2v-3h-3l-2-5-3-2-2-4-4-1-5-7v-2h-2l-1-3-5-4v-2l-5-2-15-15-3-2-3-5-6-3-6-4-8-8-3-1v-2l-4-1v-2h-2v-2l-4-2-18-13-7-5v-2h-4v-2h-2v-2h-3v-2h-4v-2l-5-2-1-3-5-1-4-2v-2l-5-1v-3l-6-1v-2l-5-2-26-14v-2l-6-1v-2h-4v-2l-5-1-5-2v-2l-10-3-19-9v-2h-2v-2l-5-1-19-7-18-8-9-2v-2l-12-2-3-1v-2l-9-2-12-3-7-3-48-13-47-10-30-5-22-3-22-1-10-1-5-2z" fill="#2A7E1E"/>
<path transform="translate(1483,782)" d="m0 0h1v16l-2 18-5 24-4 13-3 12-5 16-5 10-6 18-8 16-2 3-4-1v-10l8-16 5-13 4-8 1-4v-16l2-8 4-7 2-4v-12l4-15 12-30z" fill="#040C10"/>
<path transform="translate(352,1109)" d="m0 0h6l8 5 1 7-4 27h4l3-4-2 10-5 12-5 10-1 1-2 9-5 16-5 11-4 9-2 8-5 12-5 8-1 7-6 12-5 13-9 14-1-4 6-8 2-5-4-2-2 5-6 10-4-1 15-26 14-27 3-5 2-9 10-27 10-31 6-24 4-21v-5l-11-6z" fill="#0B3328"/>
<path transform="translate(236,1017)" d="m0 0 4 2 12 11 9 7 6 4v2l4 2 9 7 11 8 5 4 9 6 5 3 11 7 7 4 11 7 15 8 7 4 7 5v2h2l4 7 1 10-6 19-2 3-5-1 4-27-1-7-7-4-10-2-15-9-8-5-1-5-5-2-16-11-20-14-4-2v-2l-5-1-3-5-10-8-22-22z" fill="#040F11"/>
<path transform="translate(445,1325)" d="m0 0 1 3-10 4-28 9h-5v2l-55 11-13 2-1 1-67 3-2-1v-3l5-2 11-2 21-2 17-1 19-3h7l8-2 20-1 10-3 13-2 36-11z" fill="#040D12"/>
<path transform="translate(544,1284)" d="m0 0 22 1 9 2 6 2 21 4 27 7 12 3 3 2v2l6 1 37 9 1 2h-11l-16-3-20-2-1-1-8-1-1-2-26-6-9-3-25-6-3-1v-2l-16-2-18 4-4 1v2l-9 2-5 2h-6l4-4 5-2h3v-2l11-4 5-3z" fill="#040D11"/>
<path transform="translate(1466,635)" d="m0 0 3 4 8 25 6 26 4 21 3 24 1 13v34l-3 32-8 40-7 24-9 25-14 29-13 23-13 21-8 10-5 3 2-5 9-12 1-2h2v-3l2-1 3-7 8-14 14-27 7-15 10-28 6-21 6-25 3-19 2-20 1-17v-28l-1-21-4-27-3-8-4-18-6-21-2-10z" fill="#36961B"/>
<path transform="translate(694,1319)" d="m0 0 25 1 20 3h8l5-1 19 2h32l14-1 25 1h24l21-2h10v1l-31 5-4 3-25 1-10 1h-15l-9-1-49-3-32-3-25-4-3-1z" fill="#041415"/>
<path transform="translate(1092,652)" d="m0 0 13 2 12 6 1 2-1 9-5 8-6 7h-2l-2 4-4 5-5 4v-3l10-13h2l-1-10-5-6-4-2h-17l-11 4-5 6-10 13-4 2-2 5-8 11-5 5-7 8h-2l-1 3-8 7-4 3 2-4 11-12 6-8h2l2-4 2-3h2l1-4h2l1-4 12-17 9-12 8-6 10-4z" fill="#041516"/>
<path transform="translate(474,349)" d="m0 0 3 1-13 6-23 11-16 8h-4v2l-20 11-27 16-15 10-16 11-11 7-17 12-11 10-14 11-7 6-5 6-5 5-15 14-22 22-9 11-10 13-12 16-7 10-13 20-14 25-3 7-6 13-1-3 11-24 10-19 16-24 12-17 12-16 11-12 9-10 18-18 7-8 9-9 8-7 15-13 12-10 15-11 33-22 22-14 28-16 19-10 23-11z" fill="#247723"/>
<path transform="translate(269,488)" d="m0 0 2 1-9 10-34 34-12 16-8 13-10 15-9 14-8 16-9 21-8 20-10 32-7 31-3 23-2 21v40l5 36 3 17 5 20 6 18 3 8 7 18 11 19 4 8 7 12-1 2-6-9-14-25-8-16-7-19-7-22-6-29-4-27-1-25v-21l2-23 3-22 6-31 11-37 7-18 5-12 8-16 12-21 9-13 15-24 11-13 39-39z" fill="#247723"/>
<path transform="translate(460,916)" d="m0 0h3l10 15 10 13 11 13 7 8 13 14 8 7 14 12 17 13 21 14 5 3v4l-7-2-10-6-7-4v-2l-5-2-7-4v-2l-4-2-12-10v-2l-4-2-9-7-6-5v-2l-4-2-11-13-11-14v-2l-3-1v-2l-4-2-8-12-7-14z" fill="#091F14"/>
<path transform="translate(492,620)" d="m0 0h3l-1 4-11 13-14 20-10 16-8 16-9 20-10 30-3 11-3-1v-10l4-15 8-22 12-25 11-19-1-3-1 3-4 1 2-5 5-8 5 3 8-11 5-4 8-10z" fill="#165825"/>
<path transform="translate(490,1306)" d="m0 0 6 1v3l-20 8-28 10-5 3-24 8-5 2-14 4-33 7-27 5h-6l1-2 29-5 34-7h5v-2l21-6 21-7v-2l-16 3-33 10-16 3-7 2h-8l2-2 11-3 15-2 14-5 11-3 13-4 19-5 17-6h4l1-2 6-2z" fill="#041516"/>
<path transform="translate(313,1276)" d="m0 0 3 4-7 11-5 10-8 10-7 9-3 4h-2l-2 4-11 11h-2v2l-9 6h-2l-3 9-4 1-4-4 2-6 8-7 9-6 12-11 7-8 3-6 5-6 5-5 1-6h4l2-5 6-10z" fill="#041516"/>
<path transform="translate(331,1229)" d="m0 0 1 4-12 23-13 23-12 20-11 14-11 12-8 7-16 12-4 5v6l5 5 5 2h24l46-4 26-4 41-8 16-4 6-2 6-1v2l-23 7-57 11-35 4-26 2h-24l-8-4-4-5v-9l6-7 12-8 10-9 11-11 8-10 16-26 12-22z" fill="#3DA118"/>
<path transform="translate(146,856)" d="m0 0 1 2h2v4h2l6 18 2 13 5 12 5 11 10 19 1 3 3 3 5 9 4 6 3 8 1 3h2l5 8 6 7 4 4 2 5 4 2v2l3 1 6 8v2l-4-1-12-14-3-4v-2l-3-1-11-16-7-10-2-1-2-6h-4l-5-13v-3l-3-1-5-10-3-10-6-14v-4l-4-1-4-13-3-17z" fill="#0C3728"/>
<path transform="translate(936,651)" d="m0 0 21 1 5 2 3 5 1 3 1 28-1 4h-1l-1-24-3-7-1-2-8-1-13-1-5 1-12 3-4 8-2 10-1 13-2-4-1-6v-20l2-9 5-3z" fill="#041516"/>
<path transform="translate(848,282)" d="m0 0 40 1 2 1 10 1 22 1 36 5 1 3h5l-4 2-11-1-5-1h-10l-17-3-20-1-9-1-37-2-7-1v-2z" fill="#0C3628"/>
<path transform="translate(423,811)" d="m0 0 3 3 2 6 3 17 9 32 9 21 5 12h-2l-4-7-2-1 1 8-3-4-6-14-10-31-5-23z" fill="#145525"/>
<path transform="translate(315,1073)" d="m0 0 7 3v2l5 1 9 6 7 4h6l6 2v2l4 2 10 6 6 4 4 5 2 5v7l-4 8-2 7h-2l-1 6h-2l2-10 2-6-1-10-3-5v-2h-2v-2l-4-2-7-5-16-8-12-7-5-4v-2l-5-2-4-3z" fill="#0C4228"/>
<path transform="translate(723,716)" d="m0 0m-1 1m-1 1m-3 1h3l-1 5-11 12-7 10-6 12-4 14-2 14v31l-3-1-2-8-1-20 1-11 3-11 3-8h2l-1-4 6-12 1-6 6-4 7-9z" fill="#0F3D25"/>
<path transform="translate(885,282)" d="m0 0h11l36 4 35 5 29 6 31 7 29 8 21 6 36 12 27 10 26 11-3 1-15-6-16-6-11-5-9-2v-2l-12-2-3-1v-2l-9-2-12-3-7-3-48-13-47-10-30-5-22-3-22-1-10-1-5-2z" fill="#3EA218"/>
<path transform="translate(831,875)" d="m0 0h6l7 5v2l6 3v2l3 1 6 8 7 9-2 7-4 6-7 4-5 4-2 4-4 2-9 1v2l-2-1 5-6 5-3h4l2-4 5-2 2-4 6-4h2l-4-9-6-9v-2h-2l-9-9-9-3-18 4-5 2-26 4h-19v-1l17-1 12-2 19-5 12-4z" fill="#041515"/>
<path transform="translate(1420,464)" d="m0 0 3 1 5 6 5 5 10 11 9 11 10 13 15 23 8 14 16 32 3 10-3-3-13-25-10-17-6-11-12-18-9-13-11-14-12-14-8-10z" fill="#247723"/>
<path transform="translate(435,369)" d="m0 0h2v2l6-1-1 2-23 11-25 13-10 5-15 10-10 7-14 9-4 2-3-1 13-10 17-11 16-10 35-20h2v-2l10-4z" fill="#115A27"/>
<path transform="translate(685,1321)" d="m0 0h12l32 5 54 4 20 1 9 1h15l10-1 37-1h21v1l-27 2-22 1h-46l-21-1-6-1-23-1-15-2-19-2-15-2-8-1-1-1-7-1z" fill="#0E3826"/>
<path transform="translate(548,1292)" d="m0 0h11l9 3 15 4 1 2-12-2-12-3h-12l-20 6-28 11-27 10-50 17-4-1 3-2 59-20 27-11 10-3 7-2v-2l11-2v-2z" fill="#3C9F18"/>
<path transform="translate(213,998)" d="m0 0 3 1 7 8 6 8 21 21 4 3 7 3v2l4 2 9 8v3l5 1 1 2 7 4 12 8 14 10 11 7 1 4-5-2-22-14-17-12-13-11-11-9-11-10-21-21-9-11z" fill="#29781F"/>
<path transform="translate(1332,455)" d="m0 0 4 2 12 11 8 7 26 26 9 11 9 10 11 14 14 19 10 16 2 5-3-1v-2h-2v-3h-2l-4-7-3-5v-2h-2l-3-4v-3l-3-1v-3h-2l-2-6h-2l-4-5v-3l-4-2-4-4v-3h-2v-3h-3l-2-5-3-2-2-4-4-1-5-7v-2h-2l-1-3-5-4v-2l-5-2-15-15-3-2-3-5-4-2z" fill="#237021"/>
<path transform="translate(644,1305)" d="m0 0 9 1 32 7 9 2 12 2 5 1 15 1 20 3 1 2h-8l-22-3-22-1-1 1h-16l-26-4-11-2v-1h9l15 2 12 2h10l-37-9-6-2z" fill="#041516"/>
<path transform="translate(768,702)" d="m0 0h19l10 2 10 3 12 6v2l4 1 7 4v2h3l-1 6-4-1-7-6-17-9-8-4-12-2h-22l-10 1-1 1h-7v-2l16-3z" fill="#092C25"/>
<path transform="translate(718,1204)" d="m0 0 9 1 6 3 11 2 5 6-3 3h-5v-2h-22l-5-2-4-3 1-5z" fill="#0B3129"/>
<path transform="translate(1287,1085)" d="m0 0h6l-3 5-10 7-6 3-1 2-7 3-5 4-11 3-3 1v-5l5-4h2v-2l17-10z" fill="#040C10"/>
<path transform="translate(800,1327)" d="m0 0h61l2 3-1 1-25 1-10 1h-15l-20-2 1-2z" fill="#040C11"/>
<path transform="translate(353,1344)" d="m0 0h12l-4 2-14 2-24 3-19 2-12 1-1 4-2 1-22 1-2-1v-3l5-2 11-2 21-2 17-1 19-3h7z" fill="#041516"/>
<path transform="translate(949,1323)" d="m0 0m-6 1h6v2l-35 5-33 3-19 1h-75l-18-1v-2l31 1h46l36-2 32-3z" fill="#3EA218"/>
<path transform="translate(425,743)" d="m0 0h1l1 6 2 1-2 17v52h-1l-2-6-1 9h-1l-1-22v-15l1-18 2-13z" fill="#1D6D23"/>
<path transform="translate(1080,1280)" d="m0 0h9v3l-3 3-17 4-6 2-10 4-13 3h-3l-8-2 4-2 11-2 14-6 11-2z" fill="#041516"/>
<path transform="translate(1332,1054)" d="m0 0 4 1-1 4-12 10-21 14-4 1 1-5 9-9 15-10z" fill="#040C10"/>
<path transform="translate(181,951)" d="m0 0h3l2 3v3l4 2 12 18 5 7 5 5 12 15-1 3-7-6-1-2-5-3-13-18-10-15-6-10z" fill="#0F4527"/>
<path transform="translate(313,1276)" d="m0 0 3 4-7 11-5 10-8 10-5 7h-1v-5l-4 1 2-5 5-6 5-5 1-6h4l2-5 6-10z" fill="#040E11"/>
<path transform="translate(1111,905)" d="m0 0 7 6 4 4 1 5 3 1 5 7-1 4-2 2-9 1-2 1h-17l-11-1v-1l22-1 6-2 3-4h-3l-1-3 2-3v-5l-6-5-2-4z" fill="#041516"/>
<path transform="translate(228 1e3)" d="m0 0 4 3v2h2l7 8 7 7 8 7 2 3-5-2-9-9-7-5 5 6v2l4 2 11 11-3 1-12-11-11-11v-2l-4-2-4-6 1-3 4 1z" fill="#0A3028"/>
<path transform="translate(1383,519)" d="m0 0 6 5 10 14 4 7 7 9 1 5 7 9-2 3-6-10-9-10v-2l-4-2-3-5-4-6-4-7-3-5-1-4z" fill="#041415"/>
<path transform="translate(1483,811)" d="m0 0h1v7l-6 29-7 25-9 26-3 7-1-3 6-17 1-7 2-5 2-8 8-29 4-20h2z" fill="#0A3027"/>
<path transform="translate(694,1319)" d="m0 0 25 1 29 4 7 2 1 3-27-2-32-5-3-1z" fill="#040C10"/>
<path transform="translate(694,829)" d="m0 0 2 3 8 16 8 10 7 7 10 7 10 5-4 2-7-2-8-6-11-9-8-10-6-12-1-4z" fill="#133F1B"/>
<path transform="translate(298,1292)" d="m0 0h1v6l-4 5-5 5-3 4-3 5-12 13-11 9-9 5-5 5v7l5 5-5-2-3-4v-6l7-8 14-10 11-10 7-8 11-14z" fill="#1B6424"/>
<path transform="translate(1058,823)" d="m0 0 7 6 8 9 3 5 9 12 7 13v2h2l5 11-1 2-5-7-3-3-6-9-3-6-9-14-10-14-4-5z" fill="#041516"/>
<path transform="translate(1466,635)" d="m0 0 3 4 8 25 6 26 4 21 2 15v9l-2-1-4-31-2-8-5-18-5-21-2-6-2-10z" fill="#3EA218"/>
<path transform="translate(689,763)" d="m0 0h2v14l-1 9v31l-3-1-2-8-1-20 1-11 3-11z" fill="#0F3118"/>
<path transform="translate(157,884)" d="m0 0 2 3 8 20 8 16 13 23 4 6 5 5 2 3-1 4-5-5-8-12-3-6v-2l-3-1-13-26-7-16-2-6z" fill="#0E4927"/>
<path transform="translate(446,894)" d="m0 0 4 2 2 6h3l7 12v2h-2l7 15-2 3-10-16-6-10-2-4z" fill="#0E3E27"/>
<path transform="translate(460,916)" d="m0 0h3l10 15 10 13 6 7-1 6-5-5-1-3-3-1v-2l-4-2-8-12-7-14z" fill="#0B2918"/>
<path transform="translate(579,1029)" d="m0 0 5 2 18 10 24 12v1h-5v-2l-6 1-14-8-8-2-10-7-4-3z" fill="#123717"/>
<path transform="translate(498,1310)" d="m0 0 3 1-3 3-34 12-41 14-4-1 3-2 59-20z" fill="#36941B"/>
<path transform="translate(885,282)" d="m0 0h11l36 4 35 5 29 6 6 2v1l-8-1-36-7-36-5-22-1-10-1-5-2z" fill="#3EA218"/>
<path transform="translate(874,1330)" d="m0 0h21v1l-27 2-22 1h-46l-21-1v-1h48l10-1z" fill="#185925"/>
<path transform="translate(689,806)" d="m0 0h1l3 16 2 14 1 4 7 13 3 4-1 2-9-12-6-12-5-18v-9l2 3 1 5 2 1-1-2z" fill="#092A24"/>
<path transform="translate(544,1284)" d="m0 0h7l3 2-9 2-3 4-12 3v2l-9 2-5 2h-6l4-4 5-2h3v-2l11-4 5-3z" fill="#041516"/>
<path transform="translate(445,1328)" d="m0 0 1 2-27 9-5 2-14 4-33 7-27 5h-6l1-2 29-5 34-7h5v-2l21-6z" fill="#145026"/>
<path transform="translate(762,705)" d="m0 0h22l15 3 1 2-18-3h-18l-20 4-13 5-8 6h-2l1-4 1-3 11-6 6-2h11l1-1z" fill="#206521"/>
<path transform="translate(552,1280)" d="m0 0 13 1 19 5 8 2v2l5 1v1l-9-1-11-2-5-2-21-2-5-1 1-2z" fill="#081D27"/>
<path transform="translate(147,874)" d="m0 0 2 2 5 15v4l4 1 9 24 4 10 2 4 2 1 5 12-1 2-10-18-11-22-6-16-5-16z" fill="#27771F"/>
<path transform="translate(1240,1144)" d="m0 0 1 4-9 21-13 22-11 14-11 12-15 15h-2v-2l8-7 10-10 7-8 12-16 10-16 8-16z" fill="#0D4128"/>
<path transform="translate(624,839)" d="m0 0 3 1 4 12 3 7 1 7 3 1 1 4h2l6 9v2l-3-1-2-2-1 2-6-10-8-17-3-9z" fill="#1C6C23"/>
<path transform="translate(187,954)" d="m0 0h2l7 11v2h2l5 8 6 7 4 4 2 5 4 2v2l3 1 6 8v2l-4-1-12-14-3-4v-2l-3-1-11-16-8-11z" fill="#041516"/>
<path transform="translate(1083,1286)" d="m0 0 3 1-41 14-14 4h-4v-2l22-7 13-4 4-2 10-3z" fill="#0A3227"/>
<path transform="translate(357,1151)" d="m0 0h1v11l-1 2h-2v7l-9 29-2 4-4 7-1-3 12-35z" fill="#267520"/>
<path transform="translate(637,728)" d="m0 0 1 2-8 16h-2l-2 9h-2v3h-2v-7l5-15 3-7 1 4 2 1 2-4z" fill="#176424"/>
<path transform="translate(425,1327)" d="m0 0m-2 0 2 2-8 4-21 6-16 3-7 2h-8l2-2 11-3 15-2 14-5 11-3z" fill="#041516"/>
<path transform="translate(688,1323)" d="m0 0 13 1 15 2 19 2 15 2 23 1-4 2h-11l-31-3-39-5z" fill="#3A9B19"/>
<path transform="translate(280,1061)" d="m0 0 4 1 15 10 14 10 11 7 1 4-5-2-17-11-1-4-4-1-6-4v-2l-4-1-8-6z" fill="#155226"/>
<path transform="translate(1163,352)" d="m0 0h6l33 16 2 4-5-1-5-2v-2l-10-3-19-9v-2z" fill="#2C811E"/>
<path transform="translate(582,1290)" d="m0 0 10 1 22 5 15 4 12 3 3 3-8-1-9-2-15-3-11-4-7-2-8-1z" fill="#041516"/>
<path transform="translate(560,1293)" d="m0 0h8l18 5 20 5 25 6 1 3-7-1-5-2-16-3-14-5-14-3-16-4z" fill="#134C26"/>
<path transform="translate(1437,576)" d="m0 0 4 5 14 26 10 22 1 6-3-1-6-16-3-9h-2l-4-9-9-17-2-3z" fill="#2C821E"/>
<path transform="translate(1404,529)" d="m0 0 5 5 8 10 9 13 11 17-1 2-2-1v-2h-2v-3h-2l-4-7-3-5v-2h-2l-3-4v-3l-3-1v-3h-2l-2-6h-2l-4-5z" fill="#27761F"/>
<path transform="translate(352,1109)" d="m0 0h6l8 5 1 7-3 17-1 3h-2l-2 10h-1l1-9 4-21v-5l-11-6z" fill="#216B21"/>
<path transform="translate(798,707)" d="m0 0h5l6 3v3l4-1 6 4 7 3v2l7 1-1 6-4-1-7-6-17-9-5-3z" fill="#103117"/>
<path transform="translate(868,905)" d="m0 0 2 3 1 5-13 10-10 6-2-1 5-5 8-6 5-6 2-5z" fill="#0D2714"/>
<path transform="translate(698,740)" d="m0 0 1 2-6 12v4h-2l-4 16-1 3-1 17v12h-2v-25l3-15 5-14 5-10z" fill="#0C3D28"/>
<path transform="translate(1097,325)" d="m0 0 11 3 32 12 26 11-3 1-15-6-16-6-11-5-9-2v-2l-12-2-3-1z" fill="#399A19"/>
<path transform="translate(313,1276)" d="m0 0 3 4-7 11-5 10-2 1v-7l-3 1v-4h4l2-5 6-10z" fill="#041717"/>
<path transform="translate(181,951)" d="m0 0h3l2 3v3l4 2-1 4 3 1 2 6 3 2 2 5 5 5 3 4 1 4 3 3 2 5-5-5-12-16-12-19-3-5z" fill="#2C821E"/>
<path transform="translate(1240,1126)" d="m0 0h3v7l-6 17-3 4-3-1v-2h2l1-8 2-6 2-9z" fill="#040C10"/>
<path transform="translate(236,1017)" d="m0 0 4 2 12 11 9 7 6 4v2h-2l-2 2-8-7-16-16z" fill="#041516"/>
<path transform="translate(435,369)" d="m0 0h2v2l6-1-1 2-21 10h-6v-3l6-2v-2l10-4z" fill="#0E4C27"/>
<path transform="translate(287,1313)" d="m0 0h3v6l-4 5-5 1-2 4-5 4h-5l6-7z" fill="#040D10"/>
<path transform="translate(213,998)" d="m0 0 3 1 7 8 6 8 21 21 7 5 4 6-4-2-11-10-21-21-9-11z" fill="#33901C"/>
<path transform="translate(950,1321)" d="m0 0h6v2l-50 7h-9l1-2 10-1 2-1 21-2z" fill="#165825"/>
<path transform="translate(146,856)" d="m0 0 1 2h2v4h2l6 18-1 4-2-5-1 5 1 2-2 2-2-6-3-17z" fill="#0D4127"/>
<path transform="translate(234,520)" d="m0 0 3 2-12 12-11 15-8 13-2-4 10-13 9-12 9-11z" fill="#115A27"/>
<path transform="translate(1417,961)" d="m0 0h5v6l-5 7h-2l-1 3-3-1 1-8 2-5z" fill="#040C10"/>
<path transform="translate(1286,1092)" d="m0 0h5l-3 3-21 12h-2v2l-15 6-2 5-1-4 3-5 13-3 1-3 5-3h4l1-3z" fill="#0D3A27"/>
<path transform="translate(1457,905)" d="m0 0 1 3-16 32-10 18-3 4-2 5h-2v3h-2l2-5 12-21 15-29z" fill="#0D3F29"/>
<path transform="translate(945,641)" d="m0 0h27v1l-25 2h-41v-1z" fill="#27751F"/>
<path transform="translate(711,936)" d="m0 0 6 1 12 3 12 4v2l4 2-11-2-20-6-3-1z" fill="#0F371B"/>
<path transform="translate(314,449)" d="m0 0 2 1-7 6-8 6-12 11-8 7-7 7-3 1 2-4 10-9 15-14 7-6z" fill="#247723"/>
<path transform="translate(223,1007)" d="m0 0 4 2 9 10 5 6 5 3 11 11-3 1-12-11-11-11v-2l-4-2z" fill="#0D4227"/>
<path transform="translate(1192,610)" d="m0 0 3 1 7 8 3 2 2 6 4 2 4 4v3h2l5 7-1 2-12-13-7-8-1-3-3-1v-3l-3-1v-2h-2z" fill="#041516"/>
<path transform="translate(986,1312)" d="m0 0h14l-4 2-34 7h-6v-2l5-1h10v-2l9-3z" fill="#0A2D27"/>
<path transform="translate(157,884)" d="m0 0 2 3 8 20 8 16 2 5-4-2-7-14-7-16-2-6z" fill="#0E4B27"/>
<path transform="translate(271,1325)" d="m0 0 2 1-14 14-7 4-5 5v7l5 5-5-2-3-4v-6l7-8 14-10z" fill="#185925"/>
<path transform="translate(473,641)" d="m0 0v3l-11 16-1-4-1-1-1 3-4 1 2-5 5-8 5 3z" fill="#257822"/>
<path transform="translate(1307,438)" d="m0 0 4 1 6 3 15 12 6 7-1 2-3-3-4-2-8-8-3-1v-2l-4-1v-2h-2v-2l-4-2z" fill="#216A21"/>
<path transform="translate(175,935)" d="m0 0 3 4 3 3 1-3 6 11 4 6-1 2-2-4h-2l-1 3-2-6h-4l-5-13z" fill="#0D3928"/>
<path transform="translate(1466,635)" d="m0 0 3 4 3 9 3 14 7 30-1 3-5-18-5-21-2-6-2-10z" fill="#1F6922"/>
<path transform="translate(250,503)" d="m0 0h3l-1 4-14 14h-3l1-4z" fill="#0E4B27"/>
<path transform="translate(552,1289)" d="m0 0 9 1 7 2v1h-20l-12 3h-6l4-3z" fill="#0A2D27"/>
<path transform="translate(641,1314)" d="m0 0h9l15 2 19 3v2l-11-1-21-3-11-2z" fill="#0F3F26"/>
<path transform="translate(1400 1e3)" d="m0 0v3l-9 8-7 8-18 18-2-1 23-23 7-8z" fill="#0F4628"/>
<path transform="translate(1179,447)" d="m0 0 4 1v9l-6 2h-2l-1 2-1-5z" fill="#081D27"/>
<path transform="translate(418,1339)" d="m0 0h2v2l-23 7-9 2h-6l1-2 25-6 6-2z" fill="#3DA018"/>
<path transform="translate(157,903)" d="m0 0 2 2 6 13v2h2l4 10 2 4 2 1 5 12-1 2-10-18-11-22z" fill="#399A19"/>
<path transform="translate(325,1093)" d="m0 0 7 1 15 9v3h4l1 3-6-2-13-8-8-5z" fill="#27761F"/>
<path transform="translate(834,929)" d="m0 0m-1 1m5 0m-6 1m5 0 3 2-16 7h-6l-2-2 10-4 6-2 1 1z" fill="#0B2817"/>
<path transform="translate(1040,310)" d="m0 0 10 2 25 7v2l-11-2-24-7z" fill="#145526"/>
<path transform="translate(684,788)" d="m0 0 1 3h2l3 24v2l-3-1-2-8z" fill="#041818"/>
<path transform="translate(697,748)" d="m0 0 2 1-3 9-4 14h-1l-1-12 1-2h2l-1-4z" fill="#134322"/>
<path transform="translate(634,864)" d="m0 0 1 2 3 1 1 4h2l6 9v2l-3-1-2-2-1 2-6-10z" fill="#176325"/>
<path transform="translate(706,734)" d="m0 0h2l-1 5-7 10-5 1 2-6 4-5z" fill="#10391E"/>
<path transform="translate(1482,697)" d="m0 0h1l4 27v20h-1l-2-25-2-7z" fill="#145026"/>
<path transform="translate(686,921)" d="m0 0 10 6 3 3h3l2 2-1 1 3 1v2l-5-2-15-8-3-3z" fill="#185122"/>
<path transform="translate(768,702)" d="m0 0h10v1h-6v2l-20 2-1 1h-7v-2l16-3z" fill="#0B3128"/>
<path transform="translate(203,560)" d="m0 0h2l-1 5-7 11-4 2 1-5 7-11z" fill="#0E4B27"/>
<path transform="translate(733,643)" d="m0 0h5l-3 3-18 4-12 6-3-1 17-8z" fill="#35931B"/>
<path transform="translate(1332,455)" d="m0 0 4 2 12 11 8 7 10 10h-3l-14-14-4-2-3-4-4-2z" fill="#3EA218"/>
<path transform="translate(1159,353)" d="m0 0 10 3 2 1v2l6 2 1 2-9-1-9-5z" fill="#040D12"/>
<path transform="translate(354,1219)" d="m0 0 1 3-8 17-4 4-1-3 4-11h3z" fill="#3EA218"/>
<path transform="translate(364,1134)" d="m0 0 2 3-1 2 3-1h3l-2 8-2 3-5-1z" fill="#041516"/>
<path transform="translate(192,958)" d="m0 0 7 6 5 6-1 2 3 4v2l3 1 2 4-3-1v-2l-3-1-6-8-1-4h-2l-4-7z" fill="#0B3129"/>
<path transform="translate(278,1360)" d="m0 0h26v1l-25 2h-24v-1l22-1z" fill="#1E6A24"/>
<path transform="translate(605,1043)" d="m0 0 19 9 2 2h-5v-2l-6 1-8-5v-3h-2z" fill="#14411A"/>
<path transform="translate(189,961)" d="m0 0 4 2 9 14 5 7 5 5-1 2-8-9-5-5-2-5-3-2-2-6-2-1z" fill="#0C3628"/>
<path transform="translate(737,644)" d="m0 0h9l-4 3-9 3-8 1-2-2 8-3z" fill="#0B3128"/>
<path transform="translate(1236,390)" d="m0 0 5 1 12 6 8 7 3 3-5-2-3-1v-2l-5-1v-3l-6-1v-2l-5-2z" fill="#216A21"/>
<path transform="translate(885,282)" d="m0 0h11l17 2 1 2h-14l-10-1-5-2z" fill="#2A7F1F"/>
<path transform="translate(293,1303)" d="m0 0 1 2 1 4 2-1-2 5-5 5v-5l-4 1 2-5z" fill="#061F1C"/>
<path transform="translate(690,833)" d="m0 0 4 2 3 7 6 11 3 4-1 2-9-12-6-12z" fill="#0B3129"/>
<path transform="translate(1131,337)" d="m0 0 16 6 19 8-3 1-15-6-16-6z" fill="#38981A"/>
<path transform="translate(636,1060)" d="m0 0h7l15 6-3 1-10-1-8-4z" fill="#113516"/>
<path transform="translate(1483,811)" d="m0 0h1v7l-5 24h-1v-11l3-15h2z" fill="#0A3427"/>
<path transform="translate(1096,541)" d="m0 0 14 7 1 5-6-2-8-5z" fill="#0F3117"/>
<path transform="translate(309,1274)" d="m0 0 2 2-2 6-6 10-4-1z" fill="#155326"/>
<path transform="translate(982,496)" d="m0 0 7 1 4 4v-2l3 1v2l4 2-10-2-14-4v-1z" fill="#1D5D23"/>
<path transform="translate(306,1081)" d="m0 0 4 1h3l11 7 1 4-5-2-14-9z" fill="#267220"/>
<path transform="translate(1257,401)" d="m0 0 5 2 19 13-2 1-4-1v-2h-4v-2l-5-2-5-5z" fill="#30881D"/>
<path transform="translate(284,1314)" d="m0 0 2 1-15 16-7 6-2-1 16-16z" fill="#0B3428"/>
<path transform="translate(1065,315)" d="m0 0 12 3 19 6 1 2-9-2-12-3-7-3-4-1z" fill="#3C9F18"/>
<path transform="translate(668,1319)" d="m0 0 10 1 14 2-4 2-13-1-5-1v-2z" fill="#34911C"/>
<path transform="translate(352,1109)" d="m0 0h6l6 3 2 5-2 10h-1v-11l-11-6z" fill="#2C7F1E"/>
<path transform="translate(579,1032)" d="m0 0 5 2 9 6 5 2 7 1v2h2v2l-12-3-11-7z" fill="#041516"/>
<path transform="translate(968,295)" d="m0 0 8 1 13 3 4 2-7 1-9-3-7-1v-2z" fill="#0B3129"/>
<path transform="translate(643,1315)" d="m0 0 9 1 14 2 4 3-11-1-16-3z" fill="#3B9E18"/>
<path transform="translate(466,932)" d="m0 0 3 1 7 11 6 5 3 4-1 2-9-8-8-12z" fill="#0B3A28"/>
<path transform="translate(1049,1296)" d="m0 0 4 1-9 3h-3v2l-10 3h-4v-2z" fill="#092827"/>
<path transform="translate(373,1137)" d="m0 0 1 4-7 23-2-4 5-17h2z" fill="#0F4F27"/>
<path transform="translate(157,884)" d="m0 0 2 3 8 21-3-1-5-11-2-6z" fill="#0E4E27"/>
<path transform="translate(1203,370)" d="m0 0 6 2 18 10-2 1-13-6-4-1v-2h-4z" fill="#338F1C"/>
<path transform="translate(189,952)" d="m0 0 5 1 5 7-1 4-5-5z" fill="#155A26"/>
<path transform="translate(694,829)" d="m0 0 2 3 7 14-1 2-5-4-3-5z" fill="#15441C"/>
<path transform="translate(1112,333)" d="m0 0 9 1 11 5 4 3h-3l-7-2v-2l-5-1-9-3z" fill="#134F26"/>
<path transform="translate(729,940)" d="m0 0 12 2 10 3v2h-8l-2-1v-2l-10-2z" fill="#092722"/>
<path transform="translate(1391,515)" d="m0 0 6 4 7 8-1 4-6-6v-3h-2v-3h-3z" fill="#257420"/>
<path transform="translate(877,1197)" d="m0 0 5 2-1 4h-12l4-4z" fill="#0F312F"/>
<path transform="translate(723,942)" d="m0 0h13l5 2v2l4 2-11-2-11-3z" fill="#1B531B"/>
<path transform="translate(798,707)" d="m0 0h5l6 3v3l4-1 2 2-1 2-6-2-8-4z" fill="#113819"/>
<path transform="translate(1018,1305)" d="m0 0h9l-4 2-19 5-4-1 7-2h4v-2z" fill="#0B3727"/>
<path transform="translate(429,737)" d="m0 0h1v11l-1 2-3-1v-10z" fill="#135326"/>
<path transform="translate(1404,529)" d="m0 0 5 5 8 10-1 2-3-1-2-6h-2l-4-5z" fill="#2D831E"/>
<path transform="translate(1278,416)" d="m0 0 6 2 6 4 5 5-1 2-10-7v-2h-4v-2h-2z" fill="#226E21"/>
<path transform="translate(435,369)" d="m0 0h2v2l6-1-1 2-11 5-2-1 2-5z" fill="#115A27"/>
<path transform="translate(213,998)" d="m0 0 3 1 7 8 7 9-1 2-11-12z" fill="#36961B"/>
<path transform="translate(202,971)" d="m0 0 4 1 9 11v3l-4-2-3-5-5-5z" fill="#0E4A27"/>
<path transform="translate(689,806)" d="m0 0h1l3 16 1 6h-3l-1-6h-2v-5h2l-1-2z" fill="#1C551B"/>
<path transform="translate(431,721)" d="m0 0 1 4-3 9 3 1-1 9h-1l-1-6h-2l1-8z" fill="#237622"/>
<path transform="translate(181,951)" d="m0 0h3l2 3v3l4 2v7l-4-5-5-8z" fill="#236D21"/>
<path transform="translate(735,878)" d="m0 0 5 1 10 3 3 4-5-1-11-4-2-1z" fill="#041717"/>
<path transform="translate(810,709)" d="m0 0 7 3 2 1v2l4 1 7 4-4 1v-2l-9-3-7-5z" fill="#0B3129"/>
<path transform="translate(948,292)" d="m0 0h11v2h5l-4 2-11-1z" fill="#0B3328"/>
<path transform="translate(479,1312)" d="m0 0h5v3l-8 3-4-1 3-3z" fill="#040C10"/>
<path transform="translate(315,1073)" d="m0 0 7 3v2l5 1 6 5-2 1-15-9z" fill="#0D4428"/>
<path transform="translate(513,1305)" d="m0 0m-5 1h5v2l-13 5-2-1 3-1v-2z" fill="#38981A"/>
<path transform="translate(527,1296)" d="m0 0h9l-3 2-15 4h-2v-2z" fill="#104227"/>
<path transform="translate(331,1233)" d="m0 0 1 3-4 9-3 6-3 1 2-6z" fill="#135126"/>
<path transform="translate(199,962)" d="m0 0 5 5 8 10-1 2-8-9v-2l-4-2z" fill="#217223"/>
<path transform="translate(447,902)" d="m0 0h2l6 10 3 9-3-3-6-10z" fill="#0E4E27"/>
<path transform="translate(620,767)" d="m0 0 3 3v2h-2v7l-1 8h-2v-8z" fill="#115A27"/>
<path transform="translate(364,1105)" d="m0 0 5 2 5 6 2 6v8h-1l-3-13-2-4h-2v-2l-4-2z" fill="#0B3129"/>
<path transform="translate(174,929)" d="m0 0 4 4 4 10-2 1-4-7v-2l-2-1z" fill="#041516"/>
<path transform="translate(548,1292)" d="m0 0h11v1l-10 1-1 2-8 1v-3z" fill="#308B1D"/>
<path transform="translate(338,1211)" d="m0 0 2 4-2 5-5 9-1-3z" fill="#2C821E"/>
<path transform="translate(781,704)" d="m0 0h11l9 2-3 2-17-3z" fill="#051818"/>
<path transform="translate(252,1343)" d="m0 0v3l-3 2-1 5 4 5h-4l-2-2v-7l4-5z" fill="#0B3429"/>
<path transform="translate(357,1151)" d="m0 0h1v11l-1 2h-2l-1 5-1-3z" fill="#2C821E"/>
<path transform="translate(1433,951)" d="m0 0h2l-2 5-4 6-2 5h-2v3h-2l2-5z" fill="#104529"/>
<path transform="translate(714,719)" d="m0 0m-1 1m-1 1m-2 1h2l-1 4-8 9-2-1 8-10z" fill="#0D4428"/>
<path transform="translate(1185,362)" d="m0 0 6 2 13 7-4 1-6-3v-2l-6-2z" fill="#1D6824"/>
<path transform="translate(630,1312)" d="m0 0h10l1 3 2 1-10-1-3-1z" fill="#328E1C"/>
<path transform="translate(268,1053)" d="m0 0h5l1 4 5 1 1 3-5-1-7-6z" fill="#297C1F"/>
<path transform="translate(1412,984)" d="m0 0v3l-3 5-2 1-3 5h-3l4-6z" fill="#135027"/>
<path transform="translate(145,860)" d="m0 0 2 1 3 13v5l-2-3-3-10z" fill="#155726"/>
<path transform="translate(693,756)" d="m0 0h1v8l-2 8h-1l-1-12 1-2h2z" fill="#14421A"/>
<path transform="translate(1144,345)" d="m0 0 7 1 12 5v1l-7-1-11-4z" fill="#165726"/>
<path transform="translate(363,1138)" d="m0 0h1l-1 9-4 6-1-2 3-10h2z" fill="#114727"/>
<path transform="translate(1286,1092)" d="m0 0h5l-3 3-9 5h-2l1-3z" fill="#0A2F27"/>
<path transform="translate(217,997)" d="m0 0 6 5 1 4h-3l-5-5z" fill="#0E3F28"/>
<path transform="translate(190,963)" d="m0 0 3 3 1 4 3 2 2 7-5-5-4-6z" fill="#2B801E"/>
<path transform="translate(1332,455)" d="m0 0 4 2 12 11-1 2-5-5-4-2z" fill="#38981A"/>
<path transform="translate(971,1317)" d="m0 0h5l-4 2-10 2h-6v-2z" fill="#0B3627"/>
<path transform="translate(542,1291)" d="m0 0 3 1-5 3-10 1 4-3z" fill="#092B27"/>
<path transform="translate(192,958)" d="m0 0 7 6 5 6h-3l-5-3-4-7z" fill="#0C3B28"/>
<path transform="translate(423,844)" d="m0 0 2 1 3 12v5l-2-3-3-9z" fill="#3EA218"/>
<path transform="translate(698,740)" d="m0 0 1 2-7 14h-2l2-6 4-8z" fill="#0D4428"/>
<path transform="translate(726,713)" d="m0 0m-1 1 1 2 5-1-3 3-5 4h-2l1-4 1-3z" fill="#18501F"/>
<path transform="translate(502,611)" d="m0 0h2l-2 4-6 7-2-4z" fill="#1D6D23"/>
<path transform="translate(1415,545)" d="m0 0 5 3 3 4v4h-2l-3-4v-3l-3-1z" fill="#257420"/>
<path transform="translate(1e3 502)" d="m0 0 7 1 2 4-8-1-3-2h2z" fill="#195424"/>
<path transform="translate(316,1280)" d="m0 0v3l-8 13-1-4z" fill="#0B3129"/>
<path transform="translate(324,1081)" d="m0 0 5 2 11 7 1 2-6-2-11-8z" fill="#0B3129"/>
<path transform="translate(675,914)" d="m0 0 5 3 3 3-1 3-9-7z" fill="#195424"/>
<path transform="translate(733,643)" d="m0 0h5l-3 3-8 2-4-1h3v-2z" fill="#287C1F"/>
<path transform="translate(1176,594)" d="m0 0 4 2 9 9-1 2-11-10z" fill="#041516"/>
<path transform="translate(271,1325)" d="m0 0 2 1-11 11-5 1 4-4 8-7z" fill="#1F6C24"/>
<path transform="translate(1414,986)" d="m0 0v3l-6 7h-2l1-4zm-9 10m-1 1m-1 1m-2 1 2 1-2 1z" fill="#3B9D19"/>
<path transform="translate(484,947)" d="m0 0 5 4-1 6-5-5-1-2 2-1z" fill="#0D2D19"/>
<path transform="translate(498,1310)" d="m0 0 3 1-3 3-9 2-1-2z" fill="#33911C"/>
<path transform="translate(584,1300)" d="m0 0 10 1 3 2-5 1-8-2z" fill="#35941B"/>
<path transform="translate(776,1114)" d="m0 0 7 1 2 2-1 2h-5z" fill="#0A2E28"/>
<path transform="translate(1437,576)" d="m0 0 4 5 3 5-1 4-6-10z" fill="#27791F"/>
<path transform="translate(1186,364)" d="m0 0 6 2 2 1v2l6 2-2 1-12-6z" fill="#092827"/>
<path transform="translate(454,1322)" d="m0 0h5v2l-8 3h-4v-2z" fill="#040D10"/>
<path transform="translate(305,1284)" d="m0 0h2l-4 8-4-1 3-5z" fill="#124A27"/>
<path transform="translate(1330,1062)" d="m0 0v3l-4 5-4 3-2-1 5-6z" fill="#0A2E27"/>
<path transform="translate(1420,978)" d="m0 0v3l-4 5-5 3 2-5z" fill="#38981A"/>
<path transform="translate(705,932)" d="m0 0 5 1 4 2-3 1v2l-5-1 1-4z" fill="#134425"/>
<path transform="translate(1382,503)" d="m0 0 6 5 6 7-1 2-6-5-3-5z" fill="#3A9B19"/>
<path transform="translate(298,1292)" d="m0 0h1v6l-5 5 1-6z" fill="#134E26"/>
<path transform="translate(316,1261)" d="m0 0 1 3-3 8-4 2 2-5z" fill="#155726"/>
<path transform="translate(354,1168)" d="m0 0 1 3-2 7-3 1 2-10z" fill="#237021"/>
<path transform="translate(1091,325)" d="m0 0 6 1v2l7 1-2 2-10-3z" fill="#114727"/>
</svg>
